{
    "asset" : {
        "generator" : "Khronos glTF Blender I/O v1.5.17",
        "version" : "2.0"
    },
    "scene" : 0,
    "scenes" : [
        {
            "name" : "Scene",
            "nodes" : [
                0,
                1
            ]
        }
    ],
    "nodes" : [
        {
            "mesh" : 0,
            "name" : "IvySim_Leaves",
            "scale" : [
                100,
                100,
                100
            ]
        },
        {
            "mesh" : 1,
            "name" : "IvySim_Lianas",
            "scale" : [
                100,
                100,
                100
            ]
        }
    ],
    "materials" : [
        {
            "doubleSided" : true,
            "name" : "IvyLeaf",
            "normalTexture" : {
                "index" : 0
            },
            "pbrMetallicRoughness" : {
                "baseColorTexture" : {
                    "index" : 1
                },
                "metallicFactor" : 0,
                "metallicRoughnessTexture" : {
                    "index" : 2
                }
            }
        },
        {
            "doubleSided" : true,
            "name" : "Lianas",
            "pbrMetallicRoughness" : {
                "baseColorFactor" : [
                    0.09850398451089859,
                    0.02639433555305004,
                    0,
                    1
                ],
                "metallicFactor" : 0,
                "roughnessFactor" : 0.5356143712997437
            }
        }
    ],
    "meshes" : [
        {
            "name" : "IvySim_Leaves",
            "primitives" : [
                {
                    "attributes" : {
                        "POSITION" : 0,
                        "NORMAL" : 1,
                        "TANGENT" : 2,
                        "TEXCOORD_0" : 3
                    },
                    "indices" : 4,
                    "material" : 0
                }
            ]
        },
        {
            "name" : "IvySim_Lianas",
            "primitives" : [
                {
                    "attributes" : {
                        "POSITION" : 5,
                        "NORMAL" : 6,
                        "TANGENT" : 7,
                        "TEXCOORD_0" : 8
                    },
                    "indices" : 9,
                    "material" : 1
                }
            ]
        }
    ],
    "textures" : [
        {
            "sampler" : 0,
            "source" : 0
        },
        {
            "sampler" : 0,
            "source" : 1
        },
        {
            "sampler" : 0,
            "source" : 2
        }
    ],
    "images" : [
        {
            "mimeType" : "image/png",
            "name" : "IvyLeaf_Normal",
            "uri" : "textures/IvyLeaf_Normal.png"
        },
        {
            "mimeType" : "image/png",
            "name" : "IvyLeaf_BaseColor",
            "uri" : "textures/IvyLeaf_BaseColor.png"
        },
        {
            "mimeType" : "image/png",
            "name" : "IvyLeaf_Roughness0",
            "uri" : "textures/IvyLeaf_Roughness0.png"
        }
    ],
    "accessors" : [
        {
            "bufferView" : 0,
            "componentType" : 5126,
            "count" : 3098247,
            "max" : [
                -0.02472599968314171,
                0.180247500538826,
                0.04713919386267662
            ],
            "min" : [
                -0.11664547026157379,
                0.036413442343473434,
                -0.02858671359717846
            ],
            "type" : "VEC3"
        },
        {
            "bufferView" : 1,
            "componentType" : 5126,
            "count" : 3098247,
            "type" : "VEC3"
        },
        {
            "bufferView" : 2,
            "componentType" : 5126,
            "count" : 3098247,
            "type" : "VEC4"
        },
        {
            "bufferView" : 3,
            "componentType" : 5126,
            "count" : 3098247,
            "type" : "VEC2"
        },
        {
            "bufferView" : 4,
            "componentType" : 5125,
            "count" : 14716908,
            "type" : "SCALAR"
        },
        {
            "bufferView" : 5,
            "componentType" : 5126,
            "count" : 170691,
            "max" : [
                -0.02557319588959217,
                0.1793941855430603,
                0.04692832753062248
            ],
            "min" : [
                -0.11771231144666672,
                0.03747343271970749,
                -0.027643119916319847
            ],
            "type" : "VEC3"
        },
        {
            "bufferView" : 6,
            "componentType" : 5126,
            "count" : 170691,
            "type" : "VEC3"
        },
        {
            "bufferView" : 7,
            "componentType" : 5126,
            "count" : 170691,
            "type" : "VEC4"
        },
        {
            "bufferView" : 8,
            "componentType" : 5126,
            "count" : 170691,
            "type" : "VEC2"
        },
        {
            "bufferView" : 9,
            "componentType" : 5125,
            "count" : 479766,
            "type" : "SCALAR"
        }
    ],
    "bufferViews" : [
        {
            "buffer" : 0,
            "byteLength" : 37178964,
            "byteOffset" : 0
        },
        {
            "buffer" : 0,
            "byteLength" : 37178964,
            "byteOffset" : 37178964
        },
        {
            "buffer" : 0,
            "byteLength" : 49571952,
            "byteOffset" : 74357928
        },
        {
            "buffer" : 0,
            "byteLength" : 24785976,
            "byteOffset" : 123929880
        },
        {
            "buffer" : 0,
            "byteLength" : 58867632,
            "byteOffset" : 148715856
        },
        {
            "buffer" : 0,
            "byteLength" : 2048292,
            "byteOffset" : 207583488
        },
        {
            "buffer" : 0,
            "byteLength" : 2048292,
            "byteOffset" : 209631780
        },
        {
            "buffer" : 0,
            "byteLength" : 2731056,
            "byteOffset" : 211680072
        },
        {
            "buffer" : 0,
            "byteLength" : 1365528,
            "byteOffset" : 214411128
        },
        {
            "buffer" : 0,
            "byteLength" : 1919064,
            "byteOffset" : 215776656
        }
    ],
    "samplers" : [
        {
            "magFilter" : 9729,
            "minFilter" : 9987
        }
    ],
    "buffers" : [
        {
            "byteLength" : 217695720,
            "uri" : "NewSponza_IvyGrowth_glTF.bin"
        }
    ]
}
