{
    "asset" : {
        "generator" : "Khronos glTF Blender I/O v1.6.16",
        "version" : "2.0"
    },
    "scene" : 0,
    "scenes" : [
        {
            "name" : "Scene",
            "nodes" : [
                0
            ]
        }
    ],
    "nodes" : [
        {
            "mesh" : 0,
            "name" : "serapis",
            "rotation" : [
                0.7071068286895752,
                0,
                0,
                0.7071067094802856
            ],
            "scale" : [
                0.10000000149011612,
                0.10000000149011612,
                0.10000000149011612
            ]
        }
    ],
    "materials" : [
        {
            "doubleSided" : true,
            "name" : "Material_1.035",
            "normalTexture" : {
                "index" : 0
            },
            "pbrMetallicRoughness" : {
                "baseColorTexture" : {
                    "index" : 1
                },
                "metallicFactor" : 0.75,
                "metallicRoughnessTexture" : {
                    "index" : 2
                },
                "roughnessFactor" : 0.5
            }
        }
    ],
    "meshes" : [
        {
            "name" : "serapis",
            "primitives" : [
                {
                    "attributes" : {
                        "POSITION" : 0,
                        "NORMAL" : 1,
                        "TANGENT" : 2,
                        "TEXCOORD_0" : 3
                    },
                    "indices" : 4,
                    "material" : 0
                }
            ]
        }
    ],
    "textures" : [
        {
            "sampler" : 0,
            "source" : 0
        },
        {
            "sampler" : 0,
            "source" : 1
        },
        {
            "sampler" : 0,
            "source" : 2
        }
    ],
    "images" : [
        {
            "mimeType" : "image/png",
            "name" : "Material_1_normal",
            "uri" : "textures/Material_1_normal.png"
        },
        {
            "mimeType" : "image/png",
            "name" : "Color",
            "uri" : "textures/Color.png"
        },
        {
            "mimeType" : "image/png",
            "name" : "roughnessMetallic",
            "uri" : "textures/roughnessMetallic.png"
        }
    ],
    "accessors" : [
        {
            "bufferView" : 0,
            "componentType" : 5126,
            "count" : 56075,
            "max" : [
                33.18968963623047,
                21.99070930480957,
                0
            ],
            "min" : [
                -20.400569915771484,
                -29.48978042602539,
                -67.5
            ],
            "type" : "VEC3"
        },
        {
            "bufferView" : 1,
            "componentType" : 5126,
            "count" : 56075,
            "type" : "VEC3"
        },
        {
            "bufferView" : 2,
            "componentType" : 5126,
            "count" : 56075,
            "type" : "VEC4"
        },
        {
            "bufferView" : 3,
            "componentType" : 5126,
            "count" : 56075,
            "type" : "VEC2"
        },
        {
            "bufferView" : 4,
            "componentType" : 5123,
            "count" : 264120,
            "type" : "SCALAR"
        }
    ],
    "bufferViews" : [
        {
            "buffer" : 0,
            "byteLength" : 672900,
            "byteOffset" : 0
        },
        {
            "buffer" : 0,
            "byteLength" : 672900,
            "byteOffset" : 672900
        },
        {
            "buffer" : 0,
            "byteLength" : 897200,
            "byteOffset" : 1345800
        },
        {
            "buffer" : 0,
            "byteLength" : 448600,
            "byteOffset" : 2243000
        },
        {
            "buffer" : 0,
            "byteLength" : 528240,
            "byteOffset" : 2691600
        }
    ],
    "samplers" : [
        {
            "magFilter" : 9729,
            "minFilter" : 9987
        }
    ],
    "buffers" : [
        {
            "byteLength" : 3219840,
            "uri" : "serapis.bin"
        }
    ]
}
