<?xml version="1.0" encoding="UTF-8" standalone="no"?>
<!-- Creator: CorelDRAW 2021 (64-Bit) -->

<svg
   xml:space="preserve"
   width="512"
   height="512"
   version="1.1"
   shape-rendering="geometricPrecision"
   text-rendering="geometricPrecision"
   image-rendering="optimizeQuality"
   fill-rule="evenodd"
   clip-rule="evenodd"
   viewBox="0 0 512 512.41314"
   id="svg1"
   sodipodi:docname="open-folder-outline-icon.svg"
   inkscape:export-filename="folder"
   inkscape:export-xdpi="96.077423"
   inkscape:export-ydpi="96.077423"
   xmlns:inkscape="http://www.inkscape.org/namespaces/inkscape"
   xmlns:sodipodi="http://sodipodi.sourceforge.net/DTD/sodipodi-0.dtd"
   xmlns="http://www.w3.org/2000/svg"
   xmlns:svg="http://www.w3.org/2000/svg"><defs
   id="defs1" /><sodipodi:namedview
   id="namedview1"
   pagecolor="#ffffff"
   bordercolor="#000000"
   borderopacity="0.25"
   inkscape:showpageshadow="2"
   inkscape:pageopacity="0.0"
   inkscape:pagecheckerboard="0"
   inkscape:deskcolor="#d1d1d1" />&#10; <g
   id="Layer_x0020_1"
   inkscape:label="Layer 1"
   inkscape:groupmode="layer">&#10;  <metadata
   id="CorelCorpID_0Corel-Layer" />&#10;  <path
   fill="black"
   fill-rule="nonzero"
   d="m 121.3499,200.65657 h 260.64 v -31.3 c 0.73,-7.76 -4.67,-9.69 -11.24,-9.98 -3.77,-0.18 -7.97,-0.2 -11.76,-0.01 h -150.17 c -36.03,0 -43.17,-19.04 -49.96,-37.13 -3.87,-10.32 -7.56,-20.17 -22.65,-20.17 H 31.829898 c -6.76,0 -12.33,5.57 -12.33,12.33 v 253.04 l 61.44,-139.95 c 6.5,-14.82 24.130002,-26.83 40.410002,-26.83 z m 280.14,0 h 86.05 c 19.11,0 29.72,16.28 21.83,34.29 l 0.03,0.01 -73.77,168.06 c -6.5,14.83 -24.14,26.83 -40.41,26.83 H 29.029898 c -7.65,0 -13.84,-2.56 -18.08,-6.74 -6.1999996,-5.19 -10.94999957918,-17.13 -10.94999957918,-25.05 v -283.66 c 0,-17.52 14.30999957918,-31.83 31.82999957918,-31.83 H 136.2099 c 28.52,0 34.55,16.06 40.86,32.89 4.46,11.89 9.15,24.4 31.75,24.4 51.2,0 102.48,0.33 153.67,0.02 3.05,-0.03 6.18,-0.06 9.1,0.07 16.41,0.76 30.82,5.4 29.88,29.41 z m 85.97,19.05 h -366.19 c -8.66,0 -19,7.42 -22.440002,15.25 l -73.77,168.06 -0.03,-0.01 c -2.05,4.68 -1.46,7.8 4.07,7.8 H 395.2999 c 8.66,0 18.99,-7.43 22.43,-15.26 l 73.77,-168.06 c 0.07,0.03 4.09,-7.78 -4.04,-7.78 z"
   id="path1"
   style="fill:#ffffff;fill-opacity:1;stroke:none;stroke-opacity:1" />&#10; </g>&#10;</svg>
