<?xml version="1.0" encoding="UTF-8" standalone="no"?>
<!-- Created with Inkscape (http://www.inkscape.org/) -->

<svg
   width="512"
   height="512"
   viewBox="0 0 135.46666 135.46667"
   version="1.1"
   id="svg1"
   inkscape:export-filename="shader.png"
   inkscape:export-xdpi="96"
   inkscape:export-ydpi="96"
   sodipodi:docname="shader.svg"
   xmlns:inkscape="http://www.inkscape.org/namespaces/inkscape"
   xmlns:sodipodi="http://sodipodi.sourceforge.net/DTD/sodipodi-0.dtd"
   xmlns="http://www.w3.org/2000/svg"
   xmlns:svg="http://www.w3.org/2000/svg">
  <sodipodi:namedview
     id="namedview1"
     pagecolor="#ffffff"
     bordercolor="#000000"
     borderopacity="0.25"
     inkscape:showpageshadow="2"
     inkscape:pageopacity="0.0"
     inkscape:pagecheckerboard="0"
     inkscape:deskcolor="#d1d1d1"
     inkscape:document-units="mm"
     inkscape:zoom="0.97890838"
     inkscape:cx="137.90872"
     inkscape:cy="372.35354"
     inkscape:window-width="1920"
     inkscape:window-height="991"
     inkscape:window-x="-9"
     inkscape:window-y="-9"
     inkscape:window-maximized="1"
     inkscape:current-layer="layer2" />
  <defs
     id="defs1" />
  <g
     inkscape:groupmode="layer"
     id="layer2"
     inkscape:label="Capa 2">
    <rect
       style="fill:#ffffff;fill-opacity:0;stroke:#ffffff;stroke-width:4;stroke-linecap:round;stroke-linejoin:round;stroke-dasharray:none;paint-order:markers stroke fill"
       id="rect2"
       width="82.279518"
       height="27.240738"
       x="7.430716"
       y="87.485062"
       ry="0" />
    <path
       style="fill:#ffffff;fill-opacity:0;stroke:#ffffff;stroke-width:4;stroke-linecap:butt;stroke-linejoin:miter;stroke-dasharray:none;paint-order:markers stroke fill"
       d="M 89.810248,87.829241 127.9203,67.828217"
       id="path3" />
    <path
       style="fill:#ffffff;fill-opacity:0;stroke:#ffffff;stroke-width:3.95039;stroke-linecap:round;stroke-linejoin:miter;stroke-dasharray:none;paint-order:markers stroke fill"
       d="M 90.266008,114.78323 127.34454,94.732594"
       id="path3-0" />
    <path
       style="fill:#ffffff;fill-opacity:0;stroke:#ffffff;stroke-width:4;stroke-linecap:butt;stroke-linejoin:miter;stroke-dasharray:none;paint-order:markers stroke fill"
       d="M 7.5523638,87.417471 45.662415,67.416446"
       id="path3-0-4" />
    <path
       id="path4"
       style="fill:none;fill-opacity:0;stroke:#ffffff;stroke-width:4;stroke-linecap:round;stroke-linejoin:miter;stroke-dasharray:none;paint-order:markers stroke fill"
       d="M 93.17093,67.266712 H 127.8334 V 94.439361" />
    <path
       id="path5"
       style="fill:none;fill-opacity:0;stroke:#ffffff;stroke-width:4;stroke-linecap:round;stroke-linejoin:miter;stroke-dasharray:none;paint-order:markers stroke fill"
       d="M 46.00329,67.266712 H 79.123734" />
    <path
       fill="#ffffff"
       d="m 55.636766,25.979054 c 0,-3.200769 2.59685,-5.797619 5.79762,-5.797619 h 11.59524 c 3.20077,0 5.79762,2.59685 5.79762,5.797619 v 17.392862 h 4.83135 v -8.69643 c 0,-1.606425 1.29239,-2.89881 2.89881,-2.89881 1.60643,0 2.89881,1.292385 2.89881,2.89881 v 8.69643 h 2.89881 c 3.20077,0 5.79762,2.59685 5.79762,5.797622 V 76.2251 c 0,3.20077 -2.59685,5.79762 -5.79762,5.79762 h -19.3254 -11.59524 c -3.20077,0 -5.79762,-2.59685 -5.79762,-5.79762 z m 7.73016,3.865082 v 3.865077 c 0,1.062901 0.86964,1.932544 1.93254,1.932544 h 3.86507 c 1.0629,0 1.93255,-0.869643 1.93255,-1.932544 v -3.865077 c 0,-1.062899 -0.86965,-1.932542 -1.93255,-1.932542 h -3.86507 c -1.0629,0 -1.93254,0.869643 -1.93254,1.932542 z m 1.93254,9.662699 c -1.0629,0 -1.93254,0.869643 -1.93254,1.932542 v 3.865079 c 0,1.062899 0.86964,1.932542 1.93254,1.932542 h 3.86507 c 1.0629,0 1.93255,-0.869643 1.93255,-1.932542 v -3.865079 c 0,-1.062899 -0.86965,-1.932542 -1.93255,-1.932542 z m -1.93254,13.527784 v 3.865079 c 0,1.062899 0.86964,1.932543 1.93254,1.932543 h 3.86507 c 1.0629,0 1.93255,-0.869644 1.93255,-1.932543 v -3.865079 c 0,-1.0629 -0.86965,-1.932544 -1.93255,-1.932544 h -3.86507 c -1.0629,0 -1.93254,0.869644 -1.93254,1.932544 z m 21.25794,-1.932544 c -1.0629,0 -1.93254,0.869644 -1.93254,1.932544 v 3.865079 c 0,1.062899 0.86964,1.932543 1.93254,1.932543 h 3.86508 c 1.0629,0 1.93254,-0.869644 1.93254,-1.932543 v -3.865079 c 0,-1.0629 -0.86964,-1.932544 -1.93254,-1.932544 z m -1.93254,13.527782 v 3.865085 c 0,1.062902 0.86964,1.932545 1.93254,1.932545 h 3.86508 c 1.0629,0 1.93254,-0.869643 1.93254,-1.932545 v -3.865085 c 0,-1.0629 -0.86964,-1.932543 -1.93254,-1.932543 h -3.86508 c -1.0629,0 -1.93254,0.869643 -1.93254,1.932543 z M 47.906606,39.506835 c 0,0.724702 -0.12079,1.328622 -0.24157,1.932542 2.41567,1.69097 4.10664,4.58978 4.10664,7.730161 0,5.435268 -4.34821,9.662703 -9.662686,9.662703 H 40.176435 V 78.15765 c 0,2.1741 -1.811751,3.86507 -3.865073,3.86507 -2.174102,0 -3.865086,-1.69097 -3.865086,-3.86507 V 58.832241 h -1.93253 c -5.435266,0 -9.662702,-4.227435 -9.662702,-9.662703 0,-3.140381 1.57018,-6.039191 3.985865,-7.730161 -0.120792,-0.60392 -0.120792,-1.20784 -0.120792,-1.932542 0,-6.401537 5.072928,-11.595241 11.595245,-11.595241 6.401537,0 11.595244,5.193704 11.595244,11.595241 z"
       id="path1"
       style="stroke-width:0.120783" />
  </g>
</svg>
