<?xml version="1.0" encoding="UTF-8" standalone="no"?>
<!-- Created with Inkscape (http://www.inkscape.org/) -->

<svg
   width="512"
   height="512"
   viewBox="0 0 135.46666 135.46667"
   version="1.1"
   id="svg1"
   inkscape:export-filename="shader.png"
   inkscape:export-xdpi="96"
   inkscape:export-ydpi="96"
   xmlns:inkscape="http://www.inkscape.org/namespaces/inkscape"
   xmlns:sodipodi="http://sodipodi.sourceforge.net/DTD/sodipodi-0.dtd"
   xmlns="http://www.w3.org/2000/svg"
   xmlns:svg="http://www.w3.org/2000/svg">
  <sodipodi:namedview
     id="namedview1"
     pagecolor="#ffffff"
     bordercolor="#000000"
     borderopacity="0.25"
     inkscape:showpageshadow="2"
     inkscape:pageopacity="0.0"
     inkscape:pagecheckerboard="0"
     inkscape:deskcolor="#d1d1d1"
     inkscape:document-units="mm"
     inkscape:zoom="1.3843855"
     inkscape:cx="243.4293"
     inkscape:cy="226.45426"
     inkscape:window-width="1920"
     inkscape:window-height="991"
     inkscape:window-x="-9"
     inkscape:window-y="-9"
     inkscape:window-maximized="1"
     inkscape:current-layer="svg1" />
  <defs
     id="defs1" />
  <g
     inkscape:label="Capa 1"
     inkscape:groupmode="layer"
     id="layer1">
    <path
       style="fill:none;fill-opacity:1;stroke:#ffffff;stroke-width:1.54157;stroke-linecap:round;stroke-linejoin:round;stroke-dasharray:none;stroke-opacity:1;paint-order:markers stroke fill"
       d="m 0.882504,23.562562 c 20.637957,0 22.772917,-22.203597 22.772917,-22.203597"
       id="path3" />
    <path
       style="fill:none;fill-opacity:1;stroke:#ffffff;stroke-width:1.54157;stroke-linecap:round;stroke-linejoin:round;stroke-dasharray:none;stroke-opacity:1;paint-order:markers stroke fill"
       d="m 46.564176,23.279888 c -20.637958,0 -22.772918,-22.203596 -22.772918,-22.203596"
       id="path3-9" />
    <path
       style="fill:none;fill-opacity:1;stroke:#ffffff;stroke-width:1.54157;stroke-linecap:round;stroke-linejoin:round;stroke-dasharray:none;stroke-opacity:1;paint-order:markers stroke fill"
       d="m 1.050887,23.273492 c 20.637958,0 22.772918,22.203601 22.772918,22.203601"
       id="path3-7" />
    <path
       style="fill:none;fill-opacity:1;stroke:#ffffff;stroke-width:1.54157;stroke-linecap:round;stroke-linejoin:round;stroke-dasharray:none;stroke-opacity:1;paint-order:markers stroke fill"
       d="m 46.73256,23.556166 c -20.637958,0 -22.772918,22.203597 -22.772918,22.203597"
       id="path3-9-7" />
    <path
       style="fill:none;fill-opacity:1;stroke:#ffffff;stroke-width:2.03704;stroke-linecap:round;stroke-linejoin:round;stroke-dasharray:none;stroke-opacity:1;paint-order:markers stroke fill"
       d="m 13.518409,75.347919 c 53.677288,0 59.230107,-57.749364 59.230107,-57.749364"
       id="path3-0" />
    <path
       style="fill:none;fill-opacity:1;stroke:#ffffff;stroke-width:2.03704;stroke-linecap:round;stroke-linejoin:round;stroke-dasharray:none;stroke-opacity:1;paint-order:markers stroke fill"
       d="m 132.33194,74.612711 c -53.677304,0 -59.230125,-57.749359 -59.230125,-57.749359"
       id="path3-9-9" />
    <path
       style="fill:none;fill-opacity:1;stroke:#ffffff;stroke-width:2.03704;stroke-linecap:round;stroke-linejoin:round;stroke-dasharray:none;stroke-opacity:1;paint-order:markers stroke fill"
       d="m 14.338594,75.742794 c 53.67729,0 58.847872,56.602636 58.847872,56.602636"
       id="path3-7-0"
       sodipodi:nodetypes="cc" />
    <path
       style="fill:none;fill-opacity:1;stroke:#ffffff;stroke-width:2.03704;stroke-linecap:round;stroke-linejoin:round;stroke-dasharray:none;stroke-opacity:1;paint-order:markers stroke fill"
       d="m 132.76988,75.331283 c -53.677295,0 -59.230115,57.749347 -59.230115,57.749347"
       id="path3-9-7-8" />
    <path
       style="fill:#ffffff;fill-opacity:1;stroke:#ffffff;stroke-width:0.764068;stroke-linecap:round;stroke-linejoin:round;stroke-dasharray:none;stroke-opacity:1;paint-order:markers stroke fill"
       d="m 72.769685,22.584494 c -0.32335,0.855754 -0.341658,1.930659 -0.678846,2.834495 -3.194467,12.465802 -8.977096,24.577317 -18.214457,34.041219 -6.54881,6.781023 -14.838193,12.060413 -24.093966,14.810306 -1.849734,0.592858 -3.759411,1.078074 -5.629648,1.539321 1.53939,0.686375 3.54453,0.905648 5.233278,1.498097 12.785847,3.709229 23.90266,11.966421 31.222968,22.590335 6.302846,8.737783 10.086488,18.851213 12.617145,29.107203 0.573868,0.19755 0.519788,-0.93507 0.729133,-1.27152 3.658593,-14.40366 10.70606,-28.540989 22.521546,-38.469361 7.331502,-6.245142 16.380382,-10.512075 25.969882,-12.51815 1.02952,-0.380639 2.3009,-0.191912 3.24542,-0.7253 -0.19093,-0.632233 -1.35967,-0.328689 -1.89275,-0.558782 C 117.30011,74.251992 110.9148,72.140276 105.18242,68.951265 98.256021,65.107331 92.217275,59.886391 87.480564,53.722008 80.503517,44.82436 76.028455,34.356581 73.344619,23.604388 73.172322,23.315352 73.192607,22.63451 72.769685,22.584494 Z"
       id="path5" />
    <path
       style="fill:#ffffff;fill-opacity:1;stroke:#ffffff;stroke-width:0.769245;stroke-linecap:round;stroke-linejoin:round;stroke-dasharray:none;stroke-opacity:1;paint-order:markers stroke fill"
       d="M 23.175566,6.3111397 C 20.953891,13.194282 16.17303,19.547621 9.3434343,22.28796 c -0.3635829,0.355549 -1.608598,0.1974 -1.4714864,0.871094 1.9662873,0.87933 4.0284931,1.67081 5.7752571,2.994459 4.92179,3.314261 8.086201,8.685413 9.890486,14.264919 0.319802,0.345843 0.176001,1.626094 0.751508,1.502391 1.132172,-2.454465 1.842654,-5.122612 3.280196,-7.442731 2.830266,-5.166264 7.592744,-9.255256 13.226166,-11.002117 0.472715,-0.049 0.963463,-0.695647 0.124555,-0.709048 C 33.950293,20.845996 28.59144,15.115921 25.838445,8.5583782 25.181458,7.0630726 24.70136,5.4997505 24.181287,3.953571 23.580397,4.183879 23.536944,5.7169081 23.175566,6.3111397 Z"
       id="path6" />
  </g>
</svg>
